<?xml version="1.0" encoding="UTF-8" standalone="no"?>
<!-- Created with Inkscape (http://www.inkscape.org/) -->

<svg
   width="210mm"
   height="210mm"
   viewBox="0 0 210 210"
   version="1.1"
   id="svg1"
   sodipodi:docname="sickle_logo_5.svg"
   inkscape:version="1.4.2 (ebf0e940d0, 2025-05-08)"
   xmlns:inkscape="http://www.inkscape.org/namespaces/inkscape"
   xmlns:sodipodi="http://sodipodi.sourceforge.net/DTD/sodipodi-0.dtd"
   xmlns:xlink="http://www.w3.org/1999/xlink"
   xmlns="http://www.w3.org/2000/svg"
   xmlns:svg="http://www.w3.org/2000/svg">
  <sodipodi:namedview
     id="namedview1"
     pagecolor="#505050"
     bordercolor="#eeeeee"
     borderopacity="1"
     inkscape:showpageshadow="0"
     inkscape:pageopacity="0"
     inkscape:pagecheckerboard="0"
     inkscape:deskcolor="#505050"
     inkscape:document-units="mm"
     inkscape:zoom="0.76349996"
     inkscape:cx="144.72823"
     inkscape:cy="320.23577"
     inkscape:window-width="1920"
     inkscape:window-height="1080"
     inkscape:window-x="0"
     inkscape:window-y="0"
     inkscape:window-maximized="1"
     inkscape:current-layer="svg1" />
  <defs
     id="defs1">
    <linearGradient
       id="linearGradient12">
      <stop
         style="stop-color:#0061bb;stop-opacity:0;"
         offset="0"
         id="stop13" />
      <stop
         style="stop-color:#c062ff;stop-opacity:0;"
         offset="0.99710143"
         id="stop14" />
    </linearGradient>
    <linearGradient
       xlink:href="#linearGradient12"
       id="linearGradient14"
       x1="-6.6939507"
       y1="-6.8701129"
       x2="225.83275"
       y2="218.96263"
       gradientUnits="userSpaceOnUse"
       gradientTransform="translate(4.9430542,5.8238487)" />
  </defs>
  <rect
     style="fill:url(#linearGradient14);stroke-width:0.264583"
     id="rect1"
     width="238.164"
     height="227.94661"
     x="-14.081856"
     y="-8.9733047" />
  <path
     id="rect17"
     style="fill:#484848;fill-opacity:1;stroke:#252525;stroke-width:0.6;stroke-dasharray:none;stroke-opacity:1"
     d="M 57.553135,140.92575 H 201.62237 V 81.384686 h -62.48972 l -1.88826,1.377694 c 0.31846,0.206259 0.52865,0.564794 0.52865,0.974101 v 3.309875 c 0,0.642498 -0.51713,1.160136 -1.15962,1.160136 h -1.16013 c -0.64249,0 -1.15962,-0.517638 -1.15962,-1.160136 v -2.130102 l -9.12348,6.659025 V 132.64615 H 68.897145 l -2.300635,1.67949 c 0.135473,0.18979 0.214974,0.42237 0.214974,0.67438 v 3.30987 c 0,0.6425 -0.517122,1.15962 -1.159619,1.15962 h -1.159619 c -0.642498,0 -1.159619,-0.51712 -1.159619,-1.15962 V 136.7074 Z M 144.29047,82.576862 h 1.16014 c 0.64249,0 1.15962,0.517122 1.15962,1.159619 v 3.309875 c 0,0.642498 -0.51713,1.160136 -1.15962,1.160136 h -1.16014 c -0.64249,0 -1.15962,-0.517638 -1.15962,-1.160136 v -3.309875 c 0,-0.642497 0.51713,-1.159619 1.15962,-1.159619 z m 8.83719,0 h 1.16013 c 0.64249,0 1.15962,0.517122 1.15962,1.159619 v 3.309875 c 0,0.642498 -0.51713,1.160136 -1.15962,1.160136 h -1.16013 c -0.64249,0 -1.15962,-0.517638 -1.15962,-1.160136 v -3.309875 c 0,-0.642497 0.51713,-1.159619 1.15962,-1.159619 z m 8.8377,0 h 1.15962 c 0.64249,0 1.15962,0.517122 1.15962,1.159619 v 3.309875 c 0,0.642498 -0.51713,1.160136 -1.15962,1.160136 h -1.15962 c -0.64249,0 -1.16013,-0.517638 -1.16013,-1.160136 v -3.309875 c 0,-0.642497 0.51764,-1.159619 1.16013,-1.159619 z m 8.83719,0 h 1.15962 c 0.64249,0 1.15962,0.517122 1.15962,1.159619 v 3.309875 c 0,0.642498 -0.51713,1.160136 -1.15962,1.160136 h -1.15962 c -0.64249,0 -1.16014,-0.517638 -1.16014,-1.160136 v -3.309875 c 0,-0.642497 0.51765,-1.159619 1.16014,-1.159619 z m 8.83719,0 h 1.15961 c 0.64249,0 1.15962,0.517122 1.15962,1.159619 v 3.309875 c 0,0.642498 -0.51713,1.160136 -1.15962,1.160136 h -1.15961 c -0.64249,0 -1.15962,-0.517638 -1.15962,-1.160136 v -3.309875 c 0,-0.642497 0.51713,-1.159619 1.15962,-1.159619 z m 8.83718,0 h 1.15962 c 0.64249,0 1.15962,0.517122 1.15962,1.159619 v 3.309875 c 0,0.642498 -0.51713,1.160136 -1.15962,1.160136 h -1.15962 c -0.64249,0 -1.15962,-0.517638 -1.15962,-1.160136 v -3.309875 c 0,-0.642497 0.51713,-1.159619 1.15962,-1.159619 z m 8.83719,0 h 1.15962 c 0.64249,0 1.15962,0.517122 1.15962,1.159619 v 3.309875 c 0,0.642498 -0.51713,1.160136 -1.15962,1.160136 h -1.15962 c -0.64249,0 -1.15962,-0.517638 -1.15962,-1.160136 v -3.309875 c 0,-0.642497 0.51713,-1.159619 1.15962,-1.159619 z m -61.00713,6.734989 H 194.0864 V 132.64615 H 136.30698 Z M 73.329433,133.8404 h 1.159619 c 0.642497,0 1.159619,0.51712 1.159619,1.15962 v 3.30987 c 0,0.6425 -0.517122,1.15962 -1.159619,1.15962 h -1.159619 c -0.642498,0 -1.15962,-0.51712 -1.15962,-1.15962 v -3.30987 c 0,-0.6425 0.517122,-1.15962 1.15962,-1.15962 z m 8.837186,0 h 1.159619 c 0.642497,0 1.160136,0.51712 1.160136,1.15962 v 3.30987 c 0,0.6425 -0.517639,1.15962 -1.160136,1.15962 h -1.159619 c -0.642498,0 -1.159619,-0.51712 -1.159619,-1.15962 v -3.30987 c 0,-0.6425 0.517121,-1.15962 1.159619,-1.15962 z m 8.837187,0 h 1.159618 c 0.6425,0 1.16014,0.51712 1.16014,1.15962 v 3.30987 c 0,0.6425 -0.51764,1.15962 -1.16014,1.15962 h -1.159618 c -0.642498,0 -1.159619,-0.51712 -1.159619,-1.15962 v -3.30987 c 0,-0.6425 0.517121,-1.15962 1.159619,-1.15962 z m 8.837188,0 h 1.160126 c 0.6425,0 1.15962,0.51712 1.15962,1.15962 v 3.30987 c 0,0.6425 -0.51712,1.15962 -1.15962,1.15962 h -1.160126 c -0.6425,0 -1.15962,-0.51712 -1.15962,-1.15962 v -3.30987 c 0,-0.6425 0.51712,-1.15962 1.15962,-1.15962 z m 8.837186,0 h 1.16013 c 0.6425,0 1.15962,0.51712 1.15962,1.15962 v 3.30987 c 0,0.6425 -0.51712,1.15962 -1.15962,1.15962 h -1.16013 c -0.6425,0 -1.15962,-0.51712 -1.15962,-1.15962 v -3.30987 c 0,-0.6425 0.51712,-1.15962 1.15962,-1.15962 z m 8.8377,0 h 1.15962 c 0.6425,0 1.15962,0.51712 1.15962,1.15962 v 3.30987 c 0,0.6425 -0.51712,1.15962 -1.15962,1.15962 h -1.15962 c -0.6425,0 -1.16014,-0.51712 -1.16014,-1.15962 v -3.30987 c 0,-0.6425 0.51764,-1.15962 1.16014,-1.15962 z m 8.83719,0 h 1.15961 c 0.6425,0 1.15962,0.51712 1.15962,1.15962 v 3.30987 c 0,0.6425 -0.51712,1.15962 -1.15962,1.15962 h -1.15961 c -0.6425,0 -1.16014,-0.51712 -1.16014,-1.15962 v -3.30987 c 0,-0.6425 0.51764,-1.15962 1.16014,-1.15962 z m 8.83718,0 h 1.15962 c 0.6425,0 1.15962,0.51712 1.15962,1.15962 v 3.30987 c 0,0.6425 -0.51712,1.15962 -1.15962,1.15962 h -1.15962 c -0.6425,0 -1.15962,-0.51712 -1.15962,-1.15962 v -3.30987 c 0,-0.6425 0.51712,-1.15962 1.15962,-1.15962 z m 8.83719,0 h 1.15962 c 0.6425,0 1.15962,0.51712 1.15962,1.15962 v 3.30987 c 0,0.6425 -0.51712,1.15962 -1.15962,1.15962 h -1.15962 c -0.6425,0 -1.15962,-0.51712 -1.15962,-1.15962 v -3.30987 c 0,-0.6425 0.51712,-1.15962 1.15962,-1.15962 z m 8.83719,0 h 1.15961 c 0.6425,0 1.15962,0.51712 1.15962,1.15962 v 3.30987 c 0,0.6425 -0.51712,1.15962 -1.15962,1.15962 h -1.15961 c -0.6425,0 -1.15962,-0.51712 -1.15962,-1.15962 v -3.30987 c 0,-0.6425 0.51712,-1.15962 1.15962,-1.15962 z m 8.83718,0 h 1.15962 c 0.6425,0 1.16014,0.51712 1.16014,1.15962 v 3.30987 c 0,0.6425 -0.51764,1.15962 -1.16014,1.15962 h -1.15962 c -0.6425,0 -1.15962,-0.51712 -1.15962,-1.15962 v -3.30987 c 0,-0.6425 0.51712,-1.15962 1.15962,-1.15962 z m 8.83719,0 h 1.15962 c 0.6425,0 1.16013,0.51712 1.16013,1.15962 v 3.30987 c 0,0.6425 -0.51763,1.15962 -1.16013,1.15962 H 170.539 c -0.6425,0 -1.15962,-0.51712 -1.15962,-1.15962 v -3.30987 c 0,-0.6425 0.51712,-1.15962 1.15962,-1.15962 z m 8.83719,0 h 1.15961 c 0.6425,0 1.16014,0.51712 1.16014,1.15962 v 3.30987 c 0,0.6425 -0.51764,1.15962 -1.16014,1.15962 h -1.15961 c -0.6425,0 -1.15962,-0.51712 -1.15962,-1.15962 v -3.30987 c 0,-0.6425 0.51712,-1.15962 1.15962,-1.15962 z m 8.83718,0 h 1.16014 c 0.6425,0 1.15962,0.51712 1.15962,1.15962 v 3.30987 c 0,0.6425 -0.51712,1.15962 -1.15962,1.15962 h -1.16014 c -0.6425,0 -1.15962,-0.51712 -1.15962,-1.15962 v -3.30987 c 0,-0.6425 0.51712,-1.15962 1.15962,-1.15962 z m 8.83719,0 h 1.16013 c 0.6425,0 1.15962,0.51712 1.15962,1.15962 v 3.30987 c 0,0.6425 -0.51712,1.15962 -1.15962,1.15962 h -1.16013 c -0.6425,0 -1.15962,-0.51712 -1.15962,-1.15962 v -3.30987 c 0,-0.6425 0.51712,-1.15962 1.15962,-1.15962 z" />
  <path
     id="path822"
     style="fill:#484848;fill-opacity:1;stroke:#252525;stroke-width:0.6;stroke-dasharray:none;stroke-opacity:1"
     d="M 154.45451,68.430288 H 10.868955 v 59.541072 h 62.007068 l 2.17351,-1.58646 c -0.371434,-0.19283 -0.624251,-0.58037 -0.624251,-1.0294 v -3.30987 c 0,-0.6425 0.517121,-1.15962 1.159619,-1.15962 h 1.159619 c 0.642497,0 1.15962,0.51712 1.15962,1.15962 v 2.25567 l 9.416479,-6.87245 V 76.357453 h 56.273051 l 2.07016,-1.511019 c -0.17317,-0.202616 -0.2775,-0.465881 -0.2775,-0.754476 v -3.309875 c 0,-0.642497 0.51713,-1.159619 1.15962,-1.159619 h 1.15962 c 0.64249,0 1.16013,0.517122 1.16013,1.159619 v 1.727543 z M 13.987628,69.622464 h 1.159619 c 0.642497,0 1.159619,0.517122 1.159619,1.159619 v 3.309875 c 0,0.642498 -0.517122,1.160136 -1.159619,1.160136 h -1.159619 c -0.642498,0 -1.160136,-0.517638 -1.160136,-1.160136 v -3.309875 c 0,-0.642497 0.517638,-1.159619 1.160136,-1.159619 z m 8.837186,0 h 1.159619 c 0.642497,0 1.159619,0.517122 1.159619,1.159619 v 3.309875 c 0,0.642498 -0.517122,1.160136 -1.159619,1.160136 h -1.159619 c -0.642497,0 -1.160136,-0.517638 -1.160136,-1.160136 v -3.309875 c 0,-0.642497 0.517639,-1.159619 1.160136,-1.159619 z m 8.837187,0 h 1.159619 c 0.642498,0 1.159619,0.517122 1.159619,1.159619 v 3.309875 c 0,0.642498 -0.517121,1.160136 -1.159619,1.160136 h -1.159619 c -0.642497,0 -1.159619,-0.517638 -1.159619,-1.160136 v -3.309875 c 0,-0.642497 0.517122,-1.159619 1.159619,-1.159619 z m 8.837187,0 h 1.159619 c 0.642498,0 1.159619,0.517122 1.159619,1.159619 v 3.309875 c 0,0.642498 -0.517121,1.160136 -1.159619,1.160136 h -1.159619 c -0.642497,0 -1.15962,-0.517638 -1.15962,-1.160136 v -3.309875 c 0,-0.642497 0.517123,-1.159619 1.15962,-1.159619 z m 8.837186,0 h 1.159619 c 0.642498,0 1.160136,0.517122 1.160136,1.159619 v 3.309875 c 0,0.642498 -0.517638,1.160136 -1.160136,1.160136 h -1.159619 c -0.642497,0 -1.159619,-0.517638 -1.159619,-1.160136 v -3.309875 c 0,-0.642497 0.517122,-1.159619 1.159619,-1.159619 z m 8.837187,0 h 1.159619 c 0.642498,0 1.160136,0.517122 1.160136,1.159619 v 3.309875 c 0,0.642498 -0.517638,1.160136 -1.160136,1.160136 h -1.159619 c -0.642497,0 -1.159619,-0.517638 -1.159619,-1.160136 v -3.309875 c 0,-0.642497 0.517122,-1.159619 1.159619,-1.159619 z m 8.837187,0 h 1.159619 c 0.642498,0 1.160136,0.517122 1.160136,1.159619 v 3.309875 c 0,0.642498 -0.517638,1.160136 -1.160136,1.160136 h -1.159619 c -0.642497,0 -1.15962,-0.517638 -1.15962,-1.160136 v -3.309875 c 0,-0.642497 0.517123,-1.159619 1.15962,-1.159619 z m 8.837186,0 h 1.160136 c 0.642498,0 1.159619,0.517122 1.159619,1.159619 v 3.309875 c 0,0.642498 -0.517121,1.160136 -1.159619,1.160136 h -1.160136 c -0.642497,0 -1.159619,-0.517638 -1.159619,-1.160136 v -3.309875 c 0,-0.642497 0.517122,-1.159619 1.159619,-1.159619 z m 8.837187,0 h 1.160136 c 0.642498,0 1.159619,0.517122 1.159619,1.159619 v 3.309875 c 0,0.642498 -0.517121,1.160136 -1.159619,1.160136 h -1.160136 c -0.642497,0 -1.159619,-0.517638 -1.159619,-1.160136 v -3.309875 c 0,-0.642497 0.517122,-1.159619 1.159619,-1.159619 z m 8.837703,0 h 1.15962 c 0.642498,0 1.159619,0.517122 1.159619,1.159619 v 3.309875 c 0,0.642498 -0.517121,1.160136 -1.159619,1.160136 h -1.15962 c -0.642498,0 -1.160135,-0.517638 -1.160135,-1.160136 v -3.309875 c 0,-0.642497 0.517637,-1.159619 1.160135,-1.159619 z m 8.837186,0 h 1.15962 c 0.6425,0 1.15962,0.517122 1.15962,1.159619 v 3.309875 c 0,0.642498 -0.51712,1.160136 -1.15962,1.160136 h -1.15962 c -0.6425,0 -1.16013,-0.517638 -1.16013,-1.160136 v -3.309875 c 0,-0.642497 0.51763,-1.159619 1.16013,-1.159619 z m 8.83719,0 h 1.15962 c 0.6425,0 1.15962,0.517122 1.15962,1.159619 v 3.309875 c 0,0.642498 -0.51712,1.160136 -1.15962,1.160136 h -1.15962 c -0.6425,0 -1.15962,-0.517638 -1.15962,-1.160136 v -3.309875 c 0,-0.642497 0.51712,-1.159619 1.15962,-1.159619 z m 8.83719,0 h 1.15962 c 0.64249,0 1.15962,0.517122 1.15962,1.159619 v 3.309875 c 0,0.642498 -0.51713,1.160136 -1.15962,1.160136 h -1.15962 c -0.64249,0 -1.15962,-0.517638 -1.15962,-1.160136 v -3.309875 c 0,-0.642497 0.51713,-1.159619 1.15962,-1.159619 z m 8.83719,0 h 1.15961 c 0.64249,0 1.15962,0.517122 1.15962,1.159619 v 3.309875 c 0,0.642498 -0.51713,1.160136 -1.15962,1.160136 h -1.15961 c -0.64249,0 -1.15962,-0.517638 -1.15962,-1.160136 v -3.309875 c 0,-0.642497 0.51713,-1.159619 1.15962,-1.159619 z m 8.83718,0 h 1.15962 c 0.64249,0 1.16014,0.517122 1.16014,1.159619 v 3.309875 c 0,0.642498 -0.51765,1.160136 -1.16014,1.160136 h -1.15962 c -0.64249,0 -1.15962,-0.517638 -1.15962,-1.160136 v -3.309875 c 0,-0.642497 0.51713,-1.159619 1.15962,-1.159619 z M 18.26747,76.357453 H 76.046889 V 119.69176 H 18.26747 Z m -4.543392,44.528557 h 1.159619 c 0.642497,0 1.160136,0.51712 1.160136,1.15962 v 3.30987 c 0,0.6425 -0.517639,1.15962 -1.160136,1.15962 h -1.159619 c -0.642497,0 -1.159619,-0.51712 -1.159619,-1.15962 v -3.30987 c 0,-0.6425 0.517122,-1.15962 1.159619,-1.15962 z m 8.837186,0 h 1.159619 c 0.642498,0 1.160136,0.51712 1.160136,1.15962 v 3.30987 c 0,0.6425 -0.517638,1.15962 -1.160136,1.15962 h -1.159619 c -0.642497,0 -1.159619,-0.51712 -1.159619,-1.15962 v -3.30987 c 0,-0.6425 0.517122,-1.15962 1.159619,-1.15962 z m 8.837187,0 h 1.160136 c 0.642497,0 1.159619,0.51712 1.159619,1.15962 v 3.30987 c 0,0.6425 -0.517122,1.15962 -1.159619,1.15962 h -1.160136 c -0.642498,0 -1.159619,-0.51712 -1.159619,-1.15962 v -3.30987 c 0,-0.6425 0.517121,-1.15962 1.159619,-1.15962 z m 8.837187,0 h 1.160136 c 0.642497,0 1.159619,0.51712 1.159619,1.15962 v 3.30987 c 0,0.6425 -0.517122,1.15962 -1.159619,1.15962 h -1.160136 c -0.642498,0 -1.159619,-0.51712 -1.159619,-1.15962 v -3.30987 c 0,-0.6425 0.517121,-1.15962 1.159619,-1.15962 z m 8.837186,0 h 1.160136 c 0.642497,0 1.159619,0.51712 1.159619,1.15962 v 3.30987 c 0,0.6425 -0.517122,1.15962 -1.159619,1.15962 h -1.160136 c -0.642498,0 -1.159619,-0.51712 -1.159619,-1.15962 v -3.30987 c 0,-0.6425 0.517121,-1.15962 1.159619,-1.15962 z m 8.837704,0 h 1.159619 c 0.642497,0 1.159619,0.51712 1.159619,1.15962 v 3.30987 c 0,0.6425 -0.517122,1.15962 -1.159619,1.15962 h -1.159619 c -0.642498,0 -1.160136,-0.51712 -1.160136,-1.15962 v -3.30987 c 0,-0.6425 0.517638,-1.15962 1.160136,-1.15962 z m 8.837187,0 h 1.159619 c 0.642497,0 1.159619,0.51712 1.159619,1.15962 v 3.30987 c 0,0.6425 -0.517122,1.15962 -1.159619,1.15962 h -1.159619 c -0.642498,0 -1.160136,-0.51712 -1.160136,-1.15962 v -3.30987 c 0,-0.6425 0.517638,-1.15962 1.160136,-1.15962 z" />
  <rect
     style="fill:#c7c7c7;fill-opacity:1;stroke:#4a4a4a;stroke-width:0.51864;stroke-opacity:1"
     id="rect449-8"
     width="4.2738528"
     height="233.65692"
     x="145.57237"
     y="-149.02477"
     transform="matrix(0.54581649,0.83790474,-0.80774167,0.5895366,0,0)"
     ry="1.4779534" />
</svg>
